<?xml version="1.0" standalone="no"?><!DOCTYPE svg PUBLIC "-//W3C//DTD SVG 1.1//EN" "http://www.w3.org/Graphics/SVG/1.1/DTD/svg11.dtd"><svg t="1660823089283" class="icon" viewBox="0 0 1077 1024" version="1.1" xmlns="http://www.w3.org/2000/svg" p-id="1207" width="50.484375" height="48" xmlns:xlink="http://www.w3.org/1999/xlink"><defs><style type="text/css">@font-face { font-family: feedback-iconfont; src: url("//at.alicdn.com/t/font_1031158_u69w8yhxdu.woff2?t=1630033759944") format("woff2"), url("//at.alicdn.com/t/font_1031158_u69w8yhxdu.woff?t=1630033759944") format("woff"), url("//at.alicdn.com/t/font_1031158_u69w8yhxdu.ttf?t=1630033759944") format("truetype"); }
</style></defs><path d="M642.8672 402.944l-91.2384 91.2896 163.6864 163.6352a51.2 51.2 0 0 1 0 72.3968l-119.04 119.04a353.792 353.792 0 0 1-329.7792 94.5152l-35.328-8.192a256 256 0 0 1-191.7952-191.6928l-8.192-35.4304a353.792 353.792 0 0 1 94.5152-329.9328l118.9376-118.9376a51.2 51.2 0 0 1 72.3968 0l162.2016 162.1504 91.2384-91.2384-54.272-54.272a102.4 102.4 0 0 1 0-144.896l72.3968-72.3456a102.4 102.4 0 0 1 144.7936 0l181.0432 180.992a102.4 102.4 0 0 1 0 144.8448L841.984 457.216a102.4 102.4 0 0 1-144.7936 0l-54.272-54.272z m-236.032 91.2896l-125.952-125.952-76.8 76.8a283.4944 283.4944 0 0 0-79.872 242.7904v0.1024a194.048 194.048 0 0 0 162.9184 162.816 283.4944 283.4944 0 0 0 242.688-79.872l76.8512-76.8-127.488-127.488-89.7024 89.7536a51.2 51.2 0 1 1-72.448-72.3968l89.7536-89.7536z m254.1568-362.8032L588.5952 203.776l180.992 181.0432 72.3968-72.448-180.992-180.992z" p-id="1208"></path></svg>